<svg xmlns="http://www.w3.org/2000/svg" xmlns:xlink="http://www.w3.org/1999/xlink" width="321" zoomAndPan="magnify" viewBox="0 0 240.75 141.750002" height="188" preserveAspectRatio="xMidYMid meet" version="1.0"><defs><g/><clipPath id="42d114b66f"><path d="M 0.0859375 0 L 240.414062 0 L 240.414062 141.5 L 0.0859375 141.5 Z M 0.0859375 0 " clip-rule="nonzero"/></clipPath><clipPath id="c4f800f5e9"><path d="M 0.0859375 16.082031 L 81.542969 16.082031 L 81.542969 141.5 L 0.0859375 141.5 Z M 0.0859375 16.082031 " clip-rule="nonzero"/></clipPath><clipPath id="a789f3b887"><path d="M 81.542969 73.707031 L 81.542969 70.675781 L 78.539062 70.347656 C 77.730469 70.261719 69.078125 69.390625 57.871094 71.082031 L 57.871094 48.96875 L 54.070312 49.457031 C 47.789062 50.273438 41.960938 51.484375 36.578125 53.042969 C 30.726562 40.578125 21.046875 28.804688 7.59375 17.867188 L 5.472656 16.136719 L 3.355469 17.867188 C -10.097656 28.804688 -19.777344 40.578125 -25.628906 53.042969 C -31.011719 51.484375 -36.839844 50.273438 -43.121094 49.457031 L -46.921875 48.96875 L -46.921875 71.082031 C -58.132812 69.390625 -66.785156 70.261719 -67.589844 70.347656 L -70.59375 70.675781 L -70.59375 73.707031 C -70.59375 98.578125 -63.933594 117.507812 -50.789062 129.988281 C -39.914062 140.3125 -24.957031 145.699219 -7.308594 145.699219 C -5.917969 145.699219 -4.507812 145.65625 -3.078125 145.597656 L 1.757812 145.597656 L 0.796875 141.429688 C -1.589844 131.046875 -5.550781 105.964844 5.472656 85.523438 C 16.496094 105.964844 12.539062 131.046875 10.152344 141.429688 L 9.191406 145.597656 L 14.027344 145.597656 C 15.457031 145.65625 16.867188 145.699219 18.253906 145.699219 C 35.90625 145.699219 50.867188 140.3125 61.738281 129.988281 C 74.882812 117.507812 81.542969 98.578125 81.542969 73.707031 Z M 51.144531 56.710938 L 51.144531 72.371094 C 48.417969 73.003906 45.609375 73.796875 42.792969 74.804688 C 42.195312 69.546875 40.988281 64.378906 39.167969 59.324219 C 42.917969 58.269531 46.902344 57.382812 51.144531 56.710938 Z M -40.195312 56.710938 C -35.957031 57.382812 -31.972656 58.273438 -28.222656 59.328125 C -30.035156 64.382812 -31.25 69.546875 -31.847656 74.804688 C -34.664062 73.800781 -37.472656 73.007812 -40.195312 72.375 Z M -46.164062 125.078125 C -57.367188 114.453125 -63.292969 98.25 -63.824219 76.886719 C -60.332031 76.777344 -54.136719 76.835938 -46.921875 78.042969 L -46.921875 98.09375 C -46.921875 113.429688 -31.785156 128.757812 -16.878906 138.320312 C -26.726562 137.019531 -37.414062 133.398438 -46.164062 125.078125 Z M -40.195312 98.097656 L -40.195312 79.464844 C -37.585938 80.136719 -34.925781 80.972656 -32.265625 82.011719 C -32.398438 102.292969 -23.671875 119.601562 -16.003906 130.847656 C -29.164062 121.710938 -40.195312 108.808594 -40.195312 98.097656 Z M -7.878906 130.535156 C -15.027344 120.875 -24.632812 104.421875 -25.480469 85.140625 C -18.574219 88.871094 -12.09375 94.253906 -7.199219 101.988281 C -9.097656 112.328125 -8.8125 122.429688 -7.878906 130.535156 Z M -5.070312 93.34375 C -10.914062 86.027344 -18.03125 80.972656 -25.347656 77.496094 C -24.902344 72.027344 -23.722656 66.660156 -21.804688 61.398438 C -11.5625 65.179688 -3.46875 70.582031 2.394531 77.585938 C -0.960938 82.601562 -3.371094 87.941406 -5.070312 93.34375 Z M 5.472656 70.90625 C -0.847656 64.1875 -9.089844 58.9375 -19.164062 55.179688 C -14.027344 44.546875 -5.804688 34.417969 5.472656 24.863281 C 16.75 34.417969 24.976562 44.546875 30.113281 55.179688 C 20.039062 58.9375 11.796875 64.183594 5.472656 70.90625 Z M 8.550781 77.585938 C 14.414062 70.582031 22.511719 65.179688 32.75 61.398438 C 34.671875 66.65625 35.847656 72.027344 36.292969 77.496094 C 28.976562 80.972656 21.863281 86.027344 16.015625 93.34375 C 14.320312 87.941406 11.90625 82.601562 8.550781 77.585938 Z M 18.148438 101.988281 C 23.039062 94.257812 29.523438 88.871094 36.425781 85.140625 C 35.578125 104.425781 25.976562 120.875 18.828125 130.535156 C 19.761719 122.429688 20.046875 112.328125 18.148438 101.988281 Z M 43.214844 82.011719 C 45.871094 80.972656 48.535156 80.136719 51.144531 79.464844 L 51.144531 98.097656 C 51.144531 108.808594 40.113281 121.710938 26.953125 130.851562 C 34.621094 119.601562 43.347656 102.292969 43.214844 82.011719 Z M 57.113281 125.078125 C 48.359375 133.398438 37.671875 137.023438 27.824219 138.320312 C 42.734375 128.757812 57.871094 113.429688 57.871094 98.09375 L 57.871094 78.042969 C 65.085938 76.835938 71.28125 76.777344 74.769531 76.886719 C 74.242188 98.25 68.316406 114.453125 57.113281 125.078125 Z M 57.113281 125.078125 " clip-rule="nonzero"/></clipPath><clipPath id="4630b4aaf6"><path d="M 142.109375 35.46875 L 180.332031 35.46875 L 180.332031 68.441406 L 142.109375 68.441406 Z M 142.109375 35.46875 " clip-rule="nonzero"/></clipPath><clipPath id="57d27df492"><path d="M 180.332031 50.121094 L 180.332031 49.351562 L 179.578125 49.269531 C 179.375 49.246094 177.199219 49.027344 174.382812 49.457031 L 174.382812 43.832031 L 173.429688 43.957031 C 171.851562 44.164062 170.386719 44.46875 169.035156 44.867188 C 167.5625 41.695312 165.132812 38.703125 161.753906 35.917969 L 161.21875 35.480469 L 160.6875 35.917969 C 157.308594 38.703125 154.875 41.695312 153.40625 44.867188 C 152.054688 44.46875 150.589844 44.164062 149.011719 43.957031 L 148.058594 43.832031 L 148.058594 49.457031 C 145.242188 49.027344 143.066406 49.246094 142.863281 49.269531 L 142.109375 49.351562 L 142.109375 50.121094 C 142.109375 56.449219 143.78125 61.265625 147.085938 64.4375 C 149.816406 67.066406 153.574219 68.433594 158.007812 68.433594 C 158.359375 68.433594 158.714844 68.421875 159.070312 68.410156 L 160.285156 68.410156 L 160.046875 67.347656 C 159.445312 64.707031 158.449219 58.328125 161.21875 53.128906 C 163.988281 58.328125 162.996094 64.707031 162.394531 67.347656 L 162.15625 68.410156 L 163.367188 68.410156 C 163.726562 68.421875 164.082031 68.433594 164.429688 68.433594 C 168.867188 68.433594 172.625 67.066406 175.355469 64.4375 C 178.65625 61.265625 180.332031 56.449219 180.332031 50.121094 Z M 172.695312 45.800781 L 172.695312 49.785156 C 172.007812 49.945312 171.304688 50.144531 170.597656 50.402344 C 170.445312 49.066406 170.140625 47.75 169.6875 46.464844 C 170.628906 46.195312 171.628906 45.972656 172.695312 45.800781 Z M 149.746094 45.800781 C 150.8125 45.972656 151.8125 46.199219 152.753906 46.464844 C 152.300781 47.75 151.996094 49.066406 151.84375 50.402344 C 151.136719 50.148438 150.429688 49.945312 149.746094 49.785156 Z M 148.246094 63.191406 C 145.433594 60.488281 143.945312 56.367188 143.8125 50.933594 C 144.6875 50.90625 146.246094 50.917969 148.058594 51.226562 L 148.058594 56.328125 C 148.058594 60.226562 151.859375 64.125 155.605469 66.558594 C 153.132812 66.226562 150.445312 65.304688 148.246094 63.191406 Z M 149.746094 56.328125 L 149.746094 51.585938 C 150.402344 51.757812 151.070312 51.972656 151.738281 52.234375 C 151.707031 57.394531 153.898438 61.796875 155.824219 64.65625 C 152.519531 62.332031 149.746094 59.050781 149.746094 56.328125 Z M 157.867188 64.578125 C 156.070312 62.121094 153.65625 57.9375 153.445312 53.03125 C 155.179688 53.980469 156.808594 55.351562 158.035156 57.316406 C 157.558594 59.945312 157.632812 62.515625 157.867188 64.578125 Z M 158.570312 55.117188 C 157.101562 53.257812 155.316406 51.972656 153.476562 51.085938 C 153.589844 49.695312 153.886719 48.332031 154.367188 46.992188 C 156.941406 47.953125 158.972656 49.328125 160.445312 51.109375 C 159.605469 52.386719 158.996094 53.746094 158.570312 55.117188 Z M 161.21875 49.410156 C 159.632812 47.703125 157.5625 46.367188 155.03125 45.410156 C 156.320312 42.707031 158.386719 40.128906 161.21875 37.699219 C 164.054688 40.128906 166.121094 42.707031 167.410156 45.410156 C 164.878906 46.367188 162.808594 47.703125 161.21875 49.410156 Z M 161.992188 51.109375 C 163.464844 49.328125 165.5 47.953125 168.074219 46.992188 C 168.554688 48.332031 168.851562 49.695312 168.960938 51.085938 C 167.125 51.972656 165.335938 53.257812 163.871094 55.117188 C 163.441406 53.746094 162.835938 52.386719 161.992188 51.109375 Z M 164.40625 57.316406 C 165.632812 55.351562 167.261719 53.980469 168.996094 53.03125 C 168.785156 57.9375 166.371094 62.121094 164.574219 64.578125 C 164.808594 62.515625 164.882812 59.945312 164.40625 57.316406 Z M 170.703125 52.234375 C 171.371094 51.972656 172.039062 51.757812 172.695312 51.585938 L 172.695312 56.328125 C 172.695312 59.050781 169.921875 62.332031 166.617188 64.660156 C 168.542969 61.796875 170.734375 57.394531 170.703125 52.234375 Z M 174.195312 63.191406 C 171.996094 65.304688 169.308594 66.226562 166.835938 66.558594 C 170.582031 64.125 174.382812 60.226562 174.382812 56.328125 L 174.382812 51.226562 C 176.195312 50.917969 177.753906 50.902344 178.628906 50.933594 C 178.496094 56.367188 177.007812 60.488281 174.195312 63.191406 Z M 174.195312 63.191406 " clip-rule="nonzero"/></clipPath></defs><g clip-path="url(#42d114b66f)"><path fill="#ffffff" d="M 0.0859375 0 L 240.664062 0 L 240.664062 148.390625 L 0.0859375 148.390625 Z M 0.0859375 0 " fill-opacity="1" fill-rule="nonzero"/><path fill="#ffffff" d="M 0.0859375 0 L 240.664062 0 L 240.664062 141.648438 L 0.0859375 141.648438 Z M 0.0859375 0 " fill-opacity="1" fill-rule="nonzero"/><path fill="#546d69" d="M 0.0859375 0 L 240.664062 0 L 240.664062 141.648438 L 0.0859375 141.648438 Z M 0.0859375 0 " fill-opacity="1" fill-rule="nonzero"/></g><g clip-path="url(#c4f800f5e9)"><g clip-path="url(#a789f3b887)"><path fill="#415753" d="M 0.0859375 16.136719 L 0.0859375 141.5 L 81.542969 141.5 L 81.542969 16.136719 Z M 0.0859375 16.136719 " fill-opacity="1" fill-rule="nonzero"/></g></g><g clip-path="url(#4630b4aaf6)"><g clip-path="url(#57d27df492)"><path fill="#f6c6b8" d="M 142.109375 35.480469 L 142.109375 68.433594 L 180.332031 68.433594 L 180.332031 35.480469 Z M 142.109375 35.480469 " fill-opacity="1" fill-rule="nonzero"/></g></g><g fill="#ffffff" fill-opacity="1"><g transform="translate(114.419231, 88.796526)"><g><path d="M 1.0625 -14.625 L 5.609375 -14.625 C 6.972656 -14.625 8.0625 -14.332031 8.875 -13.75 C 9.695312 -13.164062 10.109375 -12.21875 10.109375 -10.90625 C 10.109375 -9.4375 9.5 -8.390625 8.28125 -7.765625 C 10.363281 -7.398438 11.40625 -6.171875 11.40625 -4.078125 C 11.40625 -2.847656 10.976562 -1.859375 10.125 -1.109375 C 9.269531 -0.367188 8.097656 0 6.609375 0 L 1.0625 0 Z M 4.390625 -8.90625 L 4.671875 -8.90625 C 5.410156 -8.90625 5.960938 -9.035156 6.328125 -9.296875 C 6.691406 -9.554688 6.875 -9.976562 6.875 -10.5625 C 6.875 -11.5625 6.140625 -12.0625 4.671875 -12.0625 L 4.390625 -12.0625 Z M 4.390625 -2.578125 L 5.4375 -2.578125 C 7.070312 -2.578125 7.890625 -3.117188 7.890625 -4.203125 C 7.890625 -4.847656 7.6875 -5.3125 7.28125 -5.59375 C 6.875 -5.882812 6.257812 -6.03125 5.4375 -6.03125 L 4.390625 -6.03125 Z M 4.390625 -2.578125 "/></g></g></g><g fill="#ffffff" fill-opacity="1"><g transform="translate(126.207204, 88.796526)"><g><path d="M 0.40625 -7.328125 C 0.40625 -9.441406 1.125 -11.226562 2.5625 -12.6875 C 4.007812 -14.15625 5.75 -14.890625 7.78125 -14.890625 C 9.832031 -14.890625 11.570312 -14.160156 13 -12.703125 C 14.425781 -11.242188 15.140625 -9.453125 15.140625 -7.328125 C 15.140625 -5.179688 14.4375 -3.378906 13.03125 -1.921875 C 11.625 -0.460938 9.875 0.265625 7.78125 0.265625 C 5.644531 0.265625 3.878906 -0.457031 2.484375 -1.90625 C 1.097656 -3.351562 0.40625 -5.160156 0.40625 -7.328125 Z M 4.015625 -7.328125 C 4.015625 -6.554688 4.128906 -5.851562 4.359375 -5.21875 C 4.597656 -4.59375 5.007812 -4.0625 5.59375 -3.625 C 6.1875 -3.1875 6.914062 -2.96875 7.78125 -2.96875 C 9.019531 -2.96875 9.957031 -3.390625 10.59375 -4.234375 C 11.226562 -5.085938 11.546875 -6.117188 11.546875 -7.328125 C 11.546875 -8.515625 11.222656 -9.535156 10.578125 -10.390625 C 9.929688 -11.253906 9 -11.6875 7.78125 -11.6875 C 6.570312 -11.6875 5.640625 -11.253906 4.984375 -10.390625 C 4.335938 -9.535156 4.015625 -8.515625 4.015625 -7.328125 Z M 4.015625 -7.328125 "/></g></g></g><g fill="#ffffff" fill-opacity="1"><g transform="translate(141.735416, 88.796526)"><g><path d="M 1.0625 -14.625 L 6.296875 -14.625 C 7.703125 -14.625 8.847656 -14.25 9.734375 -13.5 C 10.617188 -12.75 11.0625 -11.675781 11.0625 -10.28125 C 11.0625 -9.207031 10.789062 -8.304688 10.25 -7.578125 C 9.71875 -6.847656 8.988281 -6.335938 8.0625 -6.046875 L 13.109375 0 L 8.859375 0 L 4.390625 -5.78125 L 4.390625 0 L 1.0625 0 Z M 4.390625 -8.140625 L 4.78125 -8.140625 C 5.09375 -8.140625 5.351562 -8.144531 5.5625 -8.15625 C 5.78125 -8.164062 6.023438 -8.207031 6.296875 -8.28125 C 6.566406 -8.351562 6.785156 -8.453125 6.953125 -8.578125 C 7.117188 -8.710938 7.257812 -8.898438 7.375 -9.140625 C 7.5 -9.390625 7.5625 -9.691406 7.5625 -10.046875 C 7.5625 -10.410156 7.5 -10.710938 7.375 -10.953125 C 7.257812 -11.203125 7.117188 -11.390625 6.953125 -11.515625 C 6.785156 -11.648438 6.566406 -11.753906 6.296875 -11.828125 C 6.023438 -11.898438 5.78125 -11.941406 5.5625 -11.953125 C 5.351562 -11.960938 5.09375 -11.96875 4.78125 -11.96875 L 4.390625 -11.96875 Z M 4.390625 -8.140625 "/></g></g></g><g fill="#ffffff" fill-opacity="1"><g transform="translate(154.409704, 88.796526)"><g><path d="M 8.84375 -3.015625 C 9.351562 -3.015625 9.847656 -3.085938 10.328125 -3.234375 C 10.804688 -3.390625 11.160156 -3.539062 11.390625 -3.6875 L 11.71875 -3.921875 L 13.140625 -1.078125 C 13.085938 -1.046875 13.019531 -1 12.9375 -0.9375 C 12.863281 -0.875 12.675781 -0.765625 12.375 -0.609375 C 12.070312 -0.453125 11.75 -0.3125 11.40625 -0.1875 C 11.0625 -0.0703125 10.609375 0.03125 10.046875 0.125 C 9.492188 0.21875 8.921875 0.265625 8.328125 0.265625 C 6.972656 0.265625 5.6875 -0.0664062 4.46875 -0.734375 C 3.25 -1.398438 2.265625 -2.316406 1.515625 -3.484375 C 0.773438 -4.660156 0.40625 -5.925781 0.40625 -7.28125 C 0.40625 -8.3125 0.625 -9.300781 1.0625 -10.25 C 1.5 -11.195312 2.082031 -12.003906 2.8125 -12.671875 C 3.539062 -13.347656 4.390625 -13.882812 5.359375 -14.28125 C 6.328125 -14.6875 7.316406 -14.890625 8.328125 -14.890625 C 9.273438 -14.890625 10.144531 -14.773438 10.9375 -14.546875 C 11.738281 -14.328125 12.304688 -14.109375 12.640625 -13.890625 L 13.140625 -13.546875 L 11.71875 -10.71875 C 11.632812 -10.78125 11.507812 -10.863281 11.34375 -10.96875 C 11.1875 -11.070312 10.859375 -11.203125 10.359375 -11.359375 C 9.859375 -11.523438 9.351562 -11.609375 8.84375 -11.609375 C 8.039062 -11.609375 7.320312 -11.476562 6.6875 -11.21875 C 6.050781 -10.957031 5.546875 -10.613281 5.171875 -10.1875 C 4.796875 -9.769531 4.507812 -9.316406 4.3125 -8.828125 C 4.125 -8.335938 4.03125 -7.835938 4.03125 -7.328125 C 4.03125 -6.210938 4.445312 -5.210938 5.28125 -4.328125 C 6.113281 -3.453125 7.300781 -3.015625 8.84375 -3.015625 Z M 8.84375 -3.015625 "/></g></g></g><g fill="#ffffff" fill-opacity="1"><g transform="translate(167.739862, 88.796526)"><g><path d="M 9.4375 -14.625 L 9.4375 -11.703125 L 4.390625 -11.703125 L 4.390625 -8.796875 L 9.21875 -8.796875 L 9.21875 -5.875 L 4.390625 -5.875 L 4.390625 -2.921875 L 9.4375 -2.921875 L 9.4375 0 L 1.0625 0 L 1.0625 -14.625 Z M 9.4375 -14.625 "/></g></g></g><g fill="#ffffff" fill-opacity="1"><g transform="translate(178.003373, 88.796526)"><g><path d="M 4.390625 -14.625 L 4.390625 -2.921875 L 9.4375 -2.921875 L 9.4375 0 L 1.0625 0 L 1.0625 -14.625 Z M 4.390625 -14.625 "/></g></g></g><g fill="#ffffff" fill-opacity="1"><g transform="translate(188.000983, 88.796526)"><g><path d="M 4.390625 -14.625 L 4.390625 -2.921875 L 9.4375 -2.921875 L 9.4375 0 L 1.0625 0 L 1.0625 -14.625 Z M 4.390625 -14.625 "/></g></g></g><g fill="#ffffff" fill-opacity="1"><g transform="translate(197.998593, 88.796526)"><g><path d="M 9.4375 -14.625 L 9.4375 -11.703125 L 4.390625 -11.703125 L 4.390625 -8.796875 L 9.21875 -8.796875 L 9.21875 -5.875 L 4.390625 -5.875 L 4.390625 -2.921875 L 9.4375 -2.921875 L 9.4375 0 L 1.0625 0 L 1.0625 -14.625 Z M 9.4375 -14.625 "/></g></g></g><g fill="#f6c6b8" fill-opacity="1"><g transform="translate(114.74088, 97.802433)"><g><path d="M 3.015625 -5.265625 C 3.378906 -5.265625 3.738281 -5.191406 4.09375 -5.046875 C 4.445312 -4.898438 4.75 -4.703125 5 -4.453125 L 4.484375 -3.8125 C 4.296875 -4.007812 4.070312 -4.164062 3.8125 -4.28125 C 3.550781 -4.40625 3.289062 -4.46875 3.03125 -4.46875 C 2.5 -4.46875 2.050781 -4.289062 1.6875 -3.9375 C 1.332031 -3.582031 1.15625 -3.148438 1.15625 -2.640625 C 1.15625 -2.117188 1.332031 -1.675781 1.6875 -1.3125 C 2.050781 -0.957031 2.5 -0.78125 3.03125 -0.78125 C 3.570312 -0.78125 4.054688 -0.988281 4.484375 -1.40625 L 5 -0.828125 C 4.738281 -0.554688 4.425781 -0.34375 4.0625 -0.1875 C 3.707031 -0.0390625 3.347656 0.03125 2.984375 0.03125 C 2.210938 0.03125 1.5625 -0.222656 1.03125 -0.734375 C 0.507812 -1.242188 0.25 -1.875 0.25 -2.625 C 0.25 -3.375 0.515625 -4 1.046875 -4.5 C 1.578125 -5.007812 2.234375 -5.265625 3.015625 -5.265625 Z M 3.015625 -5.265625 "/></g></g></g><g fill="#f6c6b8" fill-opacity="1"><g transform="translate(120.629934, 97.802433)"><g><path d="M 1.578125 -0.796875 L 3.84375 -0.796875 L 3.84375 0 L 0.6875 0 L 0.6875 -5.234375 L 1.578125 -5.234375 Z M 1.578125 -0.796875 "/></g></g></g><g fill="#f6c6b8" fill-opacity="1"><g transform="translate(125.299318, 97.802433)"><g><path d="M 2.3125 -6.546875 L 1.390625 -5.8125 L 0.625 -5.8125 L 1.421875 -6.921875 Z M 1.578125 0 L 0.6875 0 L 0.6875 -5.234375 L 1.578125 -5.234375 Z M 1.578125 0 "/></g></g></g><g fill="#f6c6b8" fill-opacity="1"><g transform="translate(128.232725, 97.802433)"><g><path d="M 5.234375 0 L 4.359375 0 L 1.578125 -3.75 L 1.578125 0 L 0.6875 0 L 0.6875 -5.234375 L 1.5625 -5.234375 L 4.359375 -1.46875 L 4.359375 -5.234375 L 5.234375 -5.234375 Z M 5.234375 0 "/></g></g></g><g fill="#f6c6b8" fill-opacity="1"><g transform="translate(134.832631, 97.802433)"><g><path d="M 1.578125 0 L 0.6875 0 L 0.6875 -5.234375 L 1.578125 -5.234375 Z M 1.578125 0 "/></g></g></g><g fill="#f6c6b8" fill-opacity="1"><g transform="translate(137.766039, 97.802433)"><g><path d="M 3.015625 -5.265625 C 3.378906 -5.265625 3.738281 -5.191406 4.09375 -5.046875 C 4.445312 -4.898438 4.75 -4.703125 5 -4.453125 L 4.484375 -3.8125 C 4.296875 -4.007812 4.070312 -4.164062 3.8125 -4.28125 C 3.550781 -4.40625 3.289062 -4.46875 3.03125 -4.46875 C 2.5 -4.46875 2.050781 -4.289062 1.6875 -3.9375 C 1.332031 -3.582031 1.15625 -3.148438 1.15625 -2.640625 C 1.15625 -2.117188 1.332031 -1.675781 1.6875 -1.3125 C 2.050781 -0.957031 2.5 -0.78125 3.03125 -0.78125 C 3.570312 -0.78125 4.054688 -0.988281 4.484375 -1.40625 L 5 -0.828125 C 4.738281 -0.554688 4.425781 -0.34375 4.0625 -0.1875 C 3.707031 -0.0390625 3.347656 0.03125 2.984375 0.03125 C 2.210938 0.03125 1.5625 -0.222656 1.03125 -0.734375 C 0.507812 -1.242188 0.25 -1.875 0.25 -2.625 C 0.25 -3.375 0.515625 -4 1.046875 -4.5 C 1.578125 -5.007812 2.234375 -5.265625 3.015625 -5.265625 Z M 3.015625 -5.265625 "/></g></g></g><g fill="#f6c6b8" fill-opacity="1"><g transform="translate(143.655092, 97.802433)"><g><path d="M 4.078125 -1.1875 L 1.421875 -1.1875 L 0.921875 0 L 0 0 L 2.3125 -5.234375 L 3.21875 -5.234375 L 5.515625 0 L 4.578125 0 Z M 3.734375 -1.96875 L 2.75 -4.296875 L 1.765625 -1.96875 Z M 3.734375 -1.96875 "/></g></g></g><g fill="#f6c6b8" fill-opacity="1"><g transform="translate(149.850933, 97.802433)"><g/></g></g><g fill="#f6c6b8" fill-opacity="1"><g transform="translate(152.455105, 97.802433)"><g><path d="M 0.6875 -5.234375 L 2.84375 -5.234375 C 3.625 -5.234375 4.269531 -4.984375 4.78125 -4.484375 C 5.289062 -3.992188 5.546875 -3.367188 5.546875 -2.609375 C 5.546875 -1.859375 5.285156 -1.234375 4.765625 -0.734375 C 4.253906 -0.242188 3.601562 0 2.8125 0 L 0.6875 0 Z M 1.578125 -4.453125 L 1.578125 -0.796875 L 2.859375 -0.796875 C 3.367188 -0.796875 3.796875 -0.960938 4.140625 -1.296875 C 4.484375 -1.640625 4.65625 -2.078125 4.65625 -2.609375 C 4.65625 -3.140625 4.476562 -3.578125 4.125 -3.921875 C 3.769531 -4.273438 3.335938 -4.453125 2.828125 -4.453125 Z M 1.578125 -4.453125 "/></g></g></g><g fill="#f6c6b8" fill-opacity="1"><g transform="translate(158.927802, 97.802433)"><g><path d="M 4.4375 -4.453125 L 1.578125 -4.453125 L 1.578125 -3.03125 L 4.125 -3.03125 L 4.125 -2.234375 L 1.578125 -2.234375 L 1.578125 -0.796875 L 4.515625 -0.796875 L 4.515625 0 L 0.6875 0 L 0.6875 -5.234375 L 4.4375 -5.234375 Z M 4.4375 -4.453125 "/></g></g></g><g fill="#f6c6b8" fill-opacity="1"><g transform="translate(164.510065, 97.802433)"><g/></g></g><g fill="#f6c6b8" fill-opacity="1"><g transform="translate(167.11424, 97.802433)"><g><path d="M 4.4375 -4.453125 L 1.578125 -4.453125 L 1.578125 -3.03125 L 4.125 -3.03125 L 4.125 -2.234375 L 1.578125 -2.234375 L 1.578125 -0.796875 L 4.515625 -0.796875 L 4.515625 0 L 0.6875 0 L 0.6875 -5.234375 L 4.4375 -5.234375 Z M 4.4375 -4.453125 "/></g></g></g><g fill="#f6c6b8" fill-opacity="1"><g transform="translate(172.696506, 97.802433)"><g><path d="M 2.40625 -5.28125 C 3.082031 -5.28125 3.695312 -5.097656 4.25 -4.734375 L 3.875 -3.953125 C 3.34375 -4.285156 2.832031 -4.453125 2.34375 -4.453125 C 2.082031 -4.453125 1.875 -4.398438 1.71875 -4.296875 C 1.5625 -4.203125 1.484375 -4.066406 1.484375 -3.890625 C 1.484375 -3.722656 1.550781 -3.578125 1.6875 -3.453125 C 1.832031 -3.328125 2.007812 -3.234375 2.21875 -3.171875 C 2.425781 -3.117188 2.648438 -3.050781 2.890625 -2.96875 C 3.140625 -2.882812 3.367188 -2.789062 3.578125 -2.6875 C 3.796875 -2.59375 3.972656 -2.441406 4.109375 -2.234375 C 4.242188 -2.023438 4.3125 -1.773438 4.3125 -1.484375 C 4.3125 -1.023438 4.125 -0.65625 3.75 -0.375 C 3.382812 -0.101562 2.910156 0.03125 2.328125 0.03125 C 1.929688 0.03125 1.546875 -0.0390625 1.171875 -0.1875 C 0.796875 -0.34375 0.46875 -0.546875 0.1875 -0.796875 L 0.578125 -1.5625 C 0.835938 -1.320312 1.125 -1.132812 1.4375 -1 C 1.757812 -0.863281 2.0625 -0.796875 2.34375 -0.796875 C 2.65625 -0.796875 2.894531 -0.851562 3.0625 -0.96875 C 3.238281 -1.082031 3.328125 -1.238281 3.328125 -1.4375 C 3.328125 -1.613281 3.253906 -1.765625 3.109375 -1.890625 C 2.972656 -2.015625 2.800781 -2.101562 2.59375 -2.15625 C 2.382812 -2.21875 2.15625 -2.289062 1.90625 -2.375 C 1.664062 -2.457031 1.441406 -2.539062 1.234375 -2.625 C 1.023438 -2.71875 0.847656 -2.867188 0.703125 -3.078125 C 0.566406 -3.285156 0.5 -3.53125 0.5 -3.8125 C 0.5 -4.257812 0.671875 -4.613281 1.015625 -4.875 C 1.367188 -5.144531 1.832031 -5.28125 2.40625 -5.28125 Z M 2.40625 -5.28125 "/></g></g></g><g fill="#f6c6b8" fill-opacity="1"><g transform="translate(178.024362, 97.802433)"><g><path d="M 4.265625 -4.453125 L 2.609375 -4.453125 L 2.609375 0 L 1.71875 0 L 1.71875 -4.453125 L 0.0625 -4.453125 L 0.0625 -5.234375 L 4.265625 -5.234375 Z M 4.265625 -4.453125 "/></g></g></g><g fill="#f6c6b8" fill-opacity="1"><g transform="translate(183.030463, 97.802433)"><g><path d="M 3.75 -6.546875 L 2.84375 -5.8125 L 2.078125 -5.8125 L 2.859375 -6.921875 Z M 4.4375 -4.453125 L 1.578125 -4.453125 L 1.578125 -3.03125 L 4.125 -3.03125 L 4.125 -2.234375 L 1.578125 -2.234375 L 1.578125 -0.796875 L 4.515625 -0.796875 L 4.515625 0 L 0.6875 0 L 0.6875 -5.234375 L 4.4375 -5.234375 Z M 4.4375 -4.453125 "/></g></g></g><g fill="#f6c6b8" fill-opacity="1"><g transform="translate(188.612729, 97.802433)"><g><path d="M 4.265625 -4.453125 L 2.609375 -4.453125 L 2.609375 0 L 1.71875 0 L 1.71875 -4.453125 L 0.0625 -4.453125 L 0.0625 -5.234375 L 4.265625 -5.234375 Z M 4.265625 -4.453125 "/></g></g></g><g fill="#f6c6b8" fill-opacity="1"><g transform="translate(193.61883, 97.802433)"><g><path d="M 1.578125 0 L 0.6875 0 L 0.6875 -5.234375 L 1.578125 -5.234375 Z M 1.578125 0 "/></g></g></g><g fill="#f6c6b8" fill-opacity="1"><g transform="translate(196.552239, 97.802433)"><g><path d="M 3.015625 -5.265625 C 3.378906 -5.265625 3.738281 -5.191406 4.09375 -5.046875 C 4.445312 -4.898438 4.75 -4.703125 5 -4.453125 L 4.484375 -3.8125 C 4.296875 -4.007812 4.070312 -4.164062 3.8125 -4.28125 C 3.550781 -4.40625 3.289062 -4.46875 3.03125 -4.46875 C 2.5 -4.46875 2.050781 -4.289062 1.6875 -3.9375 C 1.332031 -3.582031 1.15625 -3.148438 1.15625 -2.640625 C 1.15625 -2.117188 1.332031 -1.675781 1.6875 -1.3125 C 2.050781 -0.957031 2.5 -0.78125 3.03125 -0.78125 C 3.570312 -0.78125 4.054688 -0.988281 4.484375 -1.40625 L 5 -0.828125 C 4.738281 -0.554688 4.425781 -0.34375 4.0625 -0.1875 C 3.707031 -0.0390625 3.347656 0.03125 2.984375 0.03125 C 2.210938 0.03125 1.5625 -0.222656 1.03125 -0.734375 C 0.507812 -1.242188 0.25 -1.875 0.25 -2.625 C 0.25 -3.375 0.515625 -4 1.046875 -4.5 C 1.578125 -5.007812 2.234375 -5.265625 3.015625 -5.265625 Z M 3.015625 -5.265625 "/></g></g></g><g fill="#f6c6b8" fill-opacity="1"><g transform="translate(202.441294, 97.802433)"><g><path d="M 4.078125 -1.1875 L 1.421875 -1.1875 L 0.921875 0 L 0 0 L 2.3125 -5.234375 L 3.21875 -5.234375 L 5.515625 0 L 4.578125 0 Z M 3.734375 -1.96875 L 2.75 -4.296875 L 1.765625 -1.96875 Z M 3.734375 -1.96875 "/></g></g></g></svg>